<?xml version="1.0" encoding="UTF-8" standalone="no"?><!DOCTYPE svg PUBLIC "-//W3C//DTD SVG 1.1//EN" "http://www.w3.org/Graphics/SVG/1.1/DTD/svg11.dtd"><svg width="100%" height="100%" viewBox="0 0 24 21" version="1.1" xmlns="http://www.w3.org/2000/svg" xmlns:xlink="http://www.w3.org/1999/xlink" xml:space="preserve" xmlns:serif="http://www.serif.com/" style="fill-rule:evenodd;clip-rule:evenodd;stroke-linejoin:round;stroke-miterlimit:1.41421;"><path d="M12,0c-6.611,0.087 -12.002,5.549 -12.002,12.16c0,0.064 0.001,0.129 0.002,0.193c0.048,2.401 0.734,4.746 1.987,6.794l2.025,-1.235c-0.014,-0.024 -0.023,-0.053 -0.037,-0.077l1.5,-0.888l-0.6,-1.043l-1.463,0.85c-0.552,-1.191 -0.882,-2.473 -0.975,-3.783l1.763,0l0,-1.236l-1.763,0c0.064,-1.31 0.383,-2.595 0.938,-3.783l1.5,0.849l0.6,-1.042l-1.5,-0.888c0.706,-1.086 1.625,-2.018 2.7,-2.741l0.862,1.506l1.013,-0.618l-0.825,-1.5c1.144,-0.58 2.395,-0.921 3.675,-1l0,1.814l1.2,0l0,-1.814c1.28,0.079 2.531,0.42 3.675,1l-0.825,1.5l1.012,0.618l0.863,-1.506c1.075,0.723 1.994,1.655 2.7,2.741l-0.412,0.27l0.6,1.043l0.413,-0.232c0.555,1.188 0.874,2.473 0.938,3.783l-1.764,0l0,1.236l1.763,0c-0.079,1.312 -0.41,2.597 -0.976,3.783l-1.462,-0.85l-0.6,1.043l1.5,0.888c-0.009,0.014 -0.028,0.024 -0.038,0.038l2.025,1.313c1.291,-2.045 1.98,-4.414 1.988,-6.833c0.001,-0.064 0.002,-0.129 0.002,-0.193c0,-6.611 -5.391,-12.073 -12.002,-12.16Zm7.425,7.8l-5.925,2.625c-0.422,-0.348 -0.953,-0.54 -1.5,-0.541c-0.027,-0.001 -0.053,-0.001 -0.08,-0.001c-1.36,0 -2.48,1.119 -2.48,2.48c0,1.36 1.12,2.48 2.48,2.48c1.361,0 2.48,-1.12 2.48,-2.48c0,-0.145 -0.013,-0.29 -0.038,-0.433l5.213,-4.015l-0.15,-0.115Zm-12.225,10.729l0,2.471l9.6,0l0,-2.471l-9.6,0Z" style="fill:#abb0c8;"/></svg>