<?xml version="1.0" encoding="UTF-8" standalone="no"?><!DOCTYPE svg PUBLIC "-//W3C//DTD SVG 1.1//EN" "http://www.w3.org/Graphics/SVG/1.1/DTD/svg11.dtd"><svg width="100%" height="100%" viewBox="0 0 24 18" version="1.1" xmlns="http://www.w3.org/2000/svg" xmlns:xlink="http://www.w3.org/1999/xlink" xml:space="preserve" xmlns:serif="http://www.serif.com/" style="fill-rule:evenodd;clip-rule:evenodd;stroke-linejoin:round;stroke-miterlimit:1.41421;"><path d="M7.25,0.024c-1.278,0.099 -2.392,0.921 -2.863,2.113l-4.211,11.622c-0.371,0.695 -0.107,1.571 0.586,1.945c0.23,0.124 0.49,0.182 0.751,0.168l0.063,0c-0.034,0.135 -0.05,0.273 -0.05,0.412c0,0.936 0.77,1.707 1.707,1.707c0.047,0 0.095,-0.002 0.143,-0.006c1.396,-0.095 2.654,-0.891 3.337,-2.113l6.443,0c-0.034,0.135 -0.05,0.273 -0.05,0.412c0,0.936 0.77,1.707 1.707,1.707c0.047,0 0.095,-0.002 0.143,-0.006c1.396,-0.095 2.654,-0.891 3.337,-2.113l0.063,0c1.282,-0.095 2.401,-0.918 2.874,-2.113l2.769,-7.6l0,-0.19l-0.148,-3.962c-0.013,-1.101 -0.923,-2 -2.025,-2c-0.009,0 -0.019,0 -0.028,0c-0.056,0 -0.112,0 -0.168,0.01l-14.38,0l0,0.007Zm-0.758,2.113l4.208,0l-1.537,4.226l-4.211,0l1.54,-4.226Zm6.316,0l4.211,0l-1.537,4.226l-4.211,0l1.537,-4.226Zm6.317,0l1.716,0c0.357,-0.034 0.678,0.231 0.712,0.588c0.002,0.026 0.002,0.052 0,0.078l0.127,3.56l-4.095,0l1.54,-4.226Zm-14.412,12.15c0.014,-0.001 0.028,-0.001 0.042,-0.001c0.378,0 0.694,0.298 0.715,0.675c0.008,0.133 -0.021,0.265 -0.083,0.383c-0.228,0.583 -0.765,0.991 -1.387,1.056c-0.013,0.001 -0.026,0.001 -0.039,0.001c-0.395,0 -0.719,-0.324 -0.719,-0.719c0,-0.118 0.029,-0.234 0.084,-0.338c0.228,-0.583 0.764,-0.992 1.387,-1.057Zm11.58,0c0.392,-0.023 0.734,0.282 0.757,0.674c0.008,0.133 -0.021,0.265 -0.083,0.383c-0.235,0.596 -0.793,1.007 -1.432,1.056c-0.013,0.001 -0.026,0.001 -0.039,0.001c-0.395,0 -0.719,-0.324 -0.719,-0.719c0,-0.118 0.029,-0.234 0.084,-0.338c0.235,-0.597 0.792,-1.009 1.432,-1.057Z" style="fill:#abb0c8;"/></svg>