<?xml version="1.0" encoding="UTF-8" standalone="no"?><!DOCTYPE svg PUBLIC "-//W3C//DTD SVG 1.1//EN" "http://www.w3.org/Graphics/SVG/1.1/DTD/svg11.dtd"><svg width="100%" height="100%" viewBox="0 0 24 18" version="1.1" xmlns="http://www.w3.org/2000/svg" xmlns:xlink="http://www.w3.org/1999/xlink" xml:space="preserve" xmlns:serif="http://www.serif.com/" style="fill-rule:evenodd;clip-rule:evenodd;stroke-linejoin:round;stroke-miterlimit:1.41421;"><path d="M1.843,-0.014c-0.967,-0.043 -1.798,0.716 -1.843,1.683c-0.005,0.146 0.01,0.292 0.043,0.435l2.114,11.646c0.27,1.203 1.328,2.078 2.561,2.117l0.065,0c0.504,1.248 1.706,2.083 3.051,2.118c1.178,0.062 2.198,-0.854 2.265,-2.031c0,-0.029 0,-0.058 0,-0.087l6.679,0c0.502,1.245 1.699,2.078 3.04,2.118c1.178,0.062 2.198,-0.854 2.265,-2.031c0,-0.029 0,-0.058 0,-0.087l0.065,0c0.029,0.001 0.059,0.002 0.088,0.002c0.938,0 1.721,-0.747 1.764,-1.684c0.005,-0.146 -0.01,-0.293 -0.043,-0.435l-1.373,-7.613l-0.109,-0.2l-2.353,-3.959c-0.711,-1.201 -1.994,-1.955 -3.389,-1.991l-14.89,0l0,-0.001Zm0.381,2.118l4.359,0l0.774,4.235l-4.357,0l-0.776,-4.235Zm6.538,0l4.359,0l0.774,4.235l-4.359,0l-0.774,-4.235Zm6.538,0l1.809,0c0.455,0.016 0.869,0.27 1.09,0.667l2.114,3.568l-4.239,0l-0.774,-4.235Zm-8.14,12.175c0.619,0.016 1.152,0.454 1.286,1.059c0.014,0.061 0.02,0.124 0.02,0.187c0,0.411 -0.292,0.769 -0.695,0.85c-0.072,0.016 -0.145,0.023 -0.218,0.022c-0.619,-0.016 -1.152,-0.455 -1.286,-1.059c-0.014,-0.062 -0.02,-0.124 -0.02,-0.187c0,-0.412 0.292,-0.769 0.695,-0.851c0.072,-0.016 0.145,-0.023 0.218,-0.021Zm11.987,0c0.619,0.016 1.152,0.454 1.286,1.059c0.014,0.061 0.02,0.124 0.02,0.187c0,0.411 -0.293,0.769 -0.696,0.85c-0.072,0.016 -0.145,0.023 -0.218,0.022c-0.619,-0.016 -1.152,-0.455 -1.286,-1.059c-0.014,-0.061 -0.02,-0.124 -0.02,-0.187c0,-0.412 0.292,-0.77 0.696,-0.851c0.072,-0.016 0.145,-0.023 0.218,-0.021Z" style="fill:#abb0c8;"/></svg>