<?xml version="1.0" encoding="UTF-8" standalone="no"?><!DOCTYPE svg PUBLIC "-//W3C//DTD SVG 1.1//EN" "http://www.w3.org/Graphics/SVG/1.1/DTD/svg11.dtd"><svg width="100%" height="100%" viewBox="0 0 30 38" version="1.1" xmlns="http://www.w3.org/2000/svg" xmlns:xlink="http://www.w3.org/1999/xlink" xml:space="preserve" style="fill-rule:evenodd;clip-rule:evenodd;"><path d="M27,24.673l0,-19.673c0,-2.208 -1.792,-4 -4,-4l-18,0c-2.208,0 -4,1.792 -4,4l0,24c0,2.208 1.792,4 4,4l10.436,0" style="fill:none;stroke:#fff;stroke-width:2px;"/><rect x="-0.045" y="5" width="27.959" height="2" style="fill:#fff;"/><path d="M5,10l8,0l0,1.969l-8,0l0,-1.969Zm10,0l8,0l0,1.969l-8,0l0,-1.969Zm-10,4l8,0l0,1.969l-8,0l0,-1.969Zm10,0l8,0l0,1.969l-8,0l0,-1.969Zm-10,4l8,0l0,1.969l-8,0l0,-1.969Zm10,0l8,0l0,1.969l-8,0l0,-1.969Zm-10,4l8,0l0,1.969l-8,0l0,-1.969Zm0,4l6,0l0,1.969l-6,0l0,-1.969Z" style="fill:#fff;"/><path d="M21.99,23c0.003,0 0.007,0 0.01,0c3.84,0 7,3.16 7,7c0,3.84 -3.16,7 -7,7c-3.84,0 -7,-3.16 -7,-7c0,-0.002 0,-0.003 0,-0.005c0,-3.835 3.155,-6.992 6.99,-6.995l0,0Z" style="fill:none;stroke:#fff;stroke-width:2px;stroke-linejoin:round;stroke-miterlimit:1.41421;"/><path d="M21.009,31.991l0,-2l0,-3.982l1.491,0l0,4.491l3.5,0l0,1.491l-2.991,0l-2,0Z" style="fill:#fff;"/></svg>