<?xml version="1.0" encoding="UTF-8" standalone="no"?><!DOCTYPE svg PUBLIC "-//W3C//DTD SVG 1.1//EN" "http://www.w3.org/Graphics/SVG/1.1/DTD/svg11.dtd"><svg width="100%" height="100%" viewBox="0 0 16 16" version="1.1" xmlns="http://www.w3.org/2000/svg" xmlns:xlink="http://www.w3.org/1999/xlink" xml:space="preserve" style="fill-rule:evenodd;clip-rule:evenodd;stroke-linejoin:round;stroke-miterlimit:1.41421;"><path d="M8,0c-4.389,0 -8,3.611 -8,8c0,4.389 3.611,8 8,8c4.389,0 8,-3.611 8,-8c0,-0.002 0,-0.005 0,-0.007c0,-4.385 -3.608,-7.993 -7.993,-7.993c-0.002,0 -0.005,0 -0.007,0Zm4,10.872l-1.128,1.128l-2.872,-2.872l-2.872,2.872l-1.128,-1.128l2.872,-2.872l-2.872,-2.872l1.128,-1.128l2.872,2.872l2.872,-2.872l1.128,1.128l-2.872,2.872l2.872,2.872Z" style="fill:#99999e;"/></svg>