<?xml version="1.0" encoding="UTF-8" standalone="no"?><!DOCTYPE svg PUBLIC "-//W3C//DTD SVG 1.1//EN" "http://www.w3.org/Graphics/SVG/1.1/DTD/svg11.dtd"><svg width="100%" height="100%" viewBox="0 0 18 21" version="1.1" xmlns="http://www.w3.org/2000/svg" xmlns:xlink="http://www.w3.org/1999/xlink" xml:space="preserve" style="fill-rule:evenodd;clip-rule:evenodd;stroke-linejoin:round;stroke-miterlimit:1.41421;"><path d="M7.01,19.01c0,1.092 0.898,1.99 1.99,1.99c1.092,0 1.99,-0.898 1.99,-1.99l-3.98,0Zm8.87,-4.19l0,-5.82c0.001,-3.176 -2.2,-5.959 -5.29,-6.69l0,-0.72c0,-0.872 -0.718,-1.59 -1.59,-1.59c-0.872,0 -1.59,0.718 -1.59,1.59l0,0.72c-3.09,0.731 -5.291,3.514 -5.29,6.69l0,5.82l-2.12,2.12l0,1.06l18,0l0,-1.06l-2.12,-2.12Z" style="fill:#fff;"/></svg>