<?xml version="1.0" encoding="UTF-8" standalone="no"?><!DOCTYPE svg PUBLIC "-//W3C//DTD SVG 1.1//EN" "http://www.w3.org/Graphics/SVG/1.1/DTD/svg11.dtd"><svg width="100%" height="100%" viewBox="0 0 16 16" version="1.1" xmlns="http://www.w3.org/2000/svg" xmlns:xlink="http://www.w3.org/1999/xlink" xml:space="preserve" style="fill-rule:evenodd;clip-rule:evenodd;stroke-linejoin:round;stroke-miterlimit:1.41421;"><path d="M5.6,7.8c-0.549,0 -1,0.451 -1,1c0,0.549 0.451,1 1,1c0.549,0 1,-0.451 1,-1c0,-0.549 -0.451,-1 -1,-1Zm4.8,0c-0.549,0 -1,0.451 -1,1c0,0.549 0.451,1 1,1c0.549,0 1,-0.451 1,-1c0,-0.549 -0.451,-1 -1,-1Zm-2.4,-7.8c-4.389,0 -8,3.611 -8,8c0,4.389 3.611,8 8,8c4.389,0 8,-3.611 8,-8c0,-4.389 -3.611,-8 -8,-8Zm0,14.4c-3.509,-0.004 -6.396,-2.891 -6.4,-6.4c0.001,-0.23 0.014,-0.46 0.04,-0.688c1.89,-0.844 3.384,-2.385 4.168,-4.3c1.494,2.121 3.933,3.386 6.528,3.384c0.606,0.001 1.21,-0.069 1.8,-0.208c0.176,0.591 0.265,1.205 0.265,1.822c0,3.505 -2.884,6.39 -6.39,6.39c-0.003,0 -0.007,0 -0.011,0l0,0Z" style="fill:#abb0c8;"/></svg>