<?xml version="1.0" encoding="UTF-8" standalone="no"?><!DOCTYPE svg PUBLIC "-//W3C//DTD SVG 1.1//EN" "http://www.w3.org/Graphics/SVG/1.1/DTD/svg11.dtd"><svg width="100%" height="100%" viewBox="0 0 24 22" version="1.1" xmlns="http://www.w3.org/2000/svg" xmlns:xlink="http://www.w3.org/1999/xlink" xml:space="preserve" xmlns:serif="http://www.serif.com/" style="fill-rule:evenodd;clip-rule:evenodd;stroke-linejoin:round;stroke-miterlimit:1.41421;"><path d="M16.585,0.384c-0.923,-0.247 -1.874,-0.371 -2.83,-0.371c-4.985,0 -9.373,3.4 -10.617,8.228c-0.337,1.302 -0.434,2.654 -0.285,3.991l-2.853,-0.242c2.316,1.745 4.333,3.856 5.972,6.249c0.242,-2.908 0.951,-5.757 2.1,-8.439l-2.514,1.824c-0.07,-0.893 0.008,-1.791 0.231,-2.658c0.799,-3.04 3.273,-5.368 6.356,-5.981c0.043,-0.01 0.087,-0.015 0.131,-0.015c0.313,0 0.571,0.258 0.571,0.571c0,0.149 -0.059,0.293 -0.164,0.4c-3.185,3.469 -4.459,8.297 -3.4,12.886c0.013,0.049 0.02,0.099 0.02,0.149c0,0.309 -0.254,0.563 -0.563,0.563c-0.151,0 -0.295,-0.061 -0.401,-0.168c-0.367,-0.338 -0.702,-0.71 -1,-1.111c-0.121,0.756 -0.22,1.467 -0.275,2.079l-0.131,1.445c1.166,0.942 2.516,1.631 3.963,2.023c0.7,0.138 1.413,0.208 2.126,0.208c5.254,0 9.808,-3.77 10.79,-8.931c1.088,-5.418 -2.013,-10.868 -7.227,-12.7Zm-5.039,10.139c0.248,-0.999 1.152,-1.707 2.182,-1.707c0.189,0 0.377,0.024 0.56,0.071l0.047,0.013c1.154,0.542 1.666,1.932 1.139,3.093c-0.287,0.849 -1.088,1.424 -1.985,1.424c-1.149,0 -2.095,-0.945 -2.095,-2.095c0,-0.257 0.048,-0.512 0.14,-0.752l0.012,-0.047Zm9.3,4.825c-1.456,2.488 -4.111,4.041 -6.993,4.091c-0.002,0 -0.003,0 -0.005,0c-0.19,0 -0.346,-0.156 -0.346,-0.346c0,-0.029 0.004,-0.059 0.011,-0.087l0,-0.1c0.636,-2.513 2.915,-4.287 5.506,-4.287c0.488,0 0.973,0.063 1.444,0.187c0.047,0.012 0.095,0.026 0.142,0.04c0.154,0.022 0.27,0.156 0.27,0.312c0,0.068 -0.022,0.134 -0.062,0.188l0.033,0l0,0.002Zm0.7,-3.958l-0.1,0c-3.024,-0.815 -4.852,-3.96 -4.064,-6.991l0.024,-0.091l0,-0.1c0.026,-0.154 0.161,-0.268 0.317,-0.268c0.066,0 0.129,0.02 0.183,0.057c2.474,1.505 4.003,4.186 4.04,7.082c-0.003,0.181 -0.152,0.328 -0.333,0.328c-0.036,0 -0.072,-0.006 -0.106,-0.017l0.039,0Z" style="fill:#abb0c8;"/></svg>