<?xml version="1.0" encoding="UTF-8" standalone="no"?><!DOCTYPE svg PUBLIC "-//W3C//DTD SVG 1.1//EN" "http://www.w3.org/Graphics/SVG/1.1/DTD/svg11.dtd"><svg width="100%" height="100%" viewBox="0 0 13 20" version="1.1" xmlns="http://www.w3.org/2000/svg" xmlns:xlink="http://www.w3.org/1999/xlink" xml:space="preserve" xmlns:serif="http://www.serif.com/" style="fill-rule:evenodd;clip-rule:evenodd;stroke-linejoin:round;stroke-miterlimit:1.41421;"><path d="M7.769,0c-0.007,0 -0.013,0 -0.02,0c-1.097,0 -2,0.903 -2,2c0,1.097 0.903,2 2,2c1.097,0 2,-0.903 2,-2c0,-0.004 0,-0.008 0,-0.012c0,-1.088 -0.892,-1.984 -1.98,-1.988Zm-1.515,5.031c-0.209,0.012 -0.416,0.044 -0.619,0.094l-0.031,0l-2.072,0.625c-0.879,0.258 -1.637,0.824 -2.134,1.594l-1.391,2.093l1.67,1.125l1.36,-2.093c0.227,-0.401 0.607,-0.694 1.052,-0.813l1.021,-0.312l-0.712,3.343c-0.143,0.678 0.042,1.386 0.5,1.907l2.815,3.125l0.154,0.187l1.48,4.094l2.072,0c-0.394,-1 -1.369,-3.488 -1.763,-4.688l-2.32,-3.406l-0.061,-0.312l0.711,-3.219l0.34,0.781c0.008,0.024 0.023,0.039 0.031,0.063c0.409,0.99 1.219,1.763 2.227,2.125l0.031,0l1.794,0.593l0.618,-1.875l-1.732,-0.593c-0.011,-0.01 -0.021,-0.021 -0.031,-0.032c-0.499,-0.142 -0.901,-0.514 -1.082,-1l0,-0.031l-0.031,-0.031l-0.557,-1.219c-0.008,-0.023 -0.023,-0.039 -0.031,-0.062l-0.031,0c-0.528,-1.323 -1.857,-2.16 -3.278,-2.063Zm-2.258,8.281l-0.866,2.875l-2.968,3.813l2.258,0l2.289,-2.594l0.772,-2.406l-1.485,-1.688Z" style="fill:#abb0c8;"/></svg>