<?xml version="1.0" encoding="UTF-8" standalone="no"?><!DOCTYPE svg PUBLIC "-//W3C//DTD SVG 1.1//EN" "http://www.w3.org/Graphics/SVG/1.1/DTD/svg11.dtd"><svg width="100%" height="100%" viewBox="0 0 16 16" version="1.1" xmlns="http://www.w3.org/2000/svg" xmlns:xlink="http://www.w3.org/1999/xlink" xml:space="preserve" style="fill-rule:evenodd;clip-rule:evenodd;stroke-linejoin:round;stroke-miterlimit:1.41421;"><path d="M6.08,10.36c0,0.527 -0.433,0.96 -0.96,0.96c-0.527,0 -0.96,-0.433 -0.96,-0.96c0,-0.527 0.433,-0.96 0.96,-0.96c0,0 0.001,0 0.001,0c0.526,0 0.959,0.433 0.959,0.959c0,0 0,0.001 0,0.001Zm4.8,-0.96c-0.527,0 -0.96,0.433 -0.96,0.96c0,0.527 0.433,0.96 0.96,0.96c0.527,0 0.96,-0.433 0.96,-0.96c0,0 0,-0.001 0,-0.001c0,-0.526 -0.433,-0.959 -0.959,-0.959c0,0 -0.001,0 -0.001,0l0,0Zm-6.72,-1.92l7.68,0l0,-3.2l-7.68,0l0,3.2Zm11.84,0.52c0,4.389 -3.611,8 -8,8c-4.389,0 -8,-3.611 -8,-8c0,-4.389 3.611,-8 8,-8c4.389,0 8,3.611 8,8Zm-2.88,-3.72c0,-2.24 -2.291,-2.56 -5.12,-2.56c-2.829,0 -5.12,0.32 -5.12,2.56l0,6.4c0.002,0.543 0.235,1.06 0.64,1.421l0,1.139c0.001,0.351 0.289,0.639 0.64,0.64l0.64,0c0.351,-0.001 0.639,-0.289 0.64,-0.64l0,-0.64l5.12,0l0,0.64c0.001,0.351 0.289,0.639 0.64,0.64l0.64,0c0.351,-0.001 0.639,-0.289 0.64,-0.64l0,-1.14c0.405,-0.361 0.638,-0.878 0.64,-1.421l0,-6.4l0,0.001Z" style="fill:#ff3b30;"/></svg>