<?xml version="1.0" encoding="UTF-8" standalone="no"?><!DOCTYPE svg PUBLIC "-//W3C//DTD SVG 1.1//EN" "http://www.w3.org/Graphics/SVG/1.1/DTD/svg11.dtd"><svg width="100%" height="100%" viewBox="0 0 18 18" version="1.1" xmlns="http://www.w3.org/2000/svg" xmlns:xlink="http://www.w3.org/1999/xlink" xml:space="preserve" style="fill-rule:evenodd;clip-rule:evenodd;"><path d="M14.955,9.785c0.075,-0.521 0.075,-1.049 0,-1.57l1.69,-1.322c0.155,-0.122 0.198,-0.342 0.1,-0.513l-1.6,-2.772c-0.097,-0.17 -0.306,-0.245 -0.489,-0.176l-2,0.8c-0.414,-0.322 -0.869,-0.586 -1.354,-0.785l-0.3,-2.123c-0.027,-0.194 -0.197,-0.34 -0.393,-0.337l-3.209,0c-0.196,-0.003 -0.365,0.143 -0.392,0.337l-0.305,2.123c-0.483,0.203 -0.938,0.467 -1.354,0.785l-2,-0.8c-0.183,-0.073 -0.394,0.003 -0.488,0.176l-1.6,2.772c-0.098,0.171 -0.055,0.391 0.1,0.513l1.691,1.322c-0.075,0.521 -0.075,1.049 0,1.57l-1.691,1.322c-0.155,0.122 -0.198,0.342 -0.1,0.513l1.6,2.772c0.097,0.17 0.305,0.245 0.488,0.176l2,-0.8c0.414,0.321 0.87,0.585 1.354,0.785l0.305,2.123c0.027,0.194 0.196,0.34 0.392,0.337l3.2,0c0.196,0.003 0.366,-0.143 0.393,-0.337l0.3,-2.123c0.483,-0.202 0.938,-0.466 1.354,-0.785l2,0.8c0.183,0.073 0.395,-0.003 0.489,-0.176l1.6,-2.772c0.098,-0.171 0.055,-0.391 -0.1,-0.513l-1.681,-1.322Zm-5.955,1.239c-1.11,-0.001 -2.023,-0.914 -2.023,-2.024c0,-1.11 0.914,-2.024 2.024,-2.024c1.11,0 2.024,0.914 2.024,2.024c-0.001,1.11 -0.915,2.023 -2.025,2.024Z" style="fill:none;stroke:#8e8e93;stroke-width:2px;"/></svg>