<?xml version="1.0" encoding="UTF-8" standalone="no"?><!DOCTYPE svg PUBLIC "-//W3C//DTD SVG 1.1//EN" "http://www.w3.org/Graphics/SVG/1.1/DTD/svg11.dtd"><svg width="100%" height="100%" viewBox="0 0 19 19" version="1.1" xmlns="http://www.w3.org/2000/svg" xmlns:xlink="http://www.w3.org/1999/xlink" xml:space="preserve" xmlns:serif="http://www.serif.com/" style="fill-rule:evenodd;clip-rule:evenodd;stroke-linejoin:round;stroke-miterlimit:1.41421;"><path d="M17.001,-0.016c-1.095,0.012 -1.99,0.916 -1.99,2.012c0,1.104 0.908,2.012 2.012,2.012c1.102,0 2.01,-0.906 2.012,-2.008c-0.003,-1.107 -0.915,-2.016 -2.022,-2.016c-0.004,0 -0.008,0 -0.012,0Zm-4.133,4.275c-0.376,0.01 -0.741,0.13 -1.049,0.345l-5.405,3.835l-2.067,0.88l-0.127,0.031l-2.416,-4.683l-1.812,0.943l2.416,4.652c0.43,0.816 1.354,1.253 2.257,1.068l2.035,-0.346l0.127,3.552l-3.942,4.054l1.462,1.383l3.974,-4.054c0.335,-0.337 0.538,-0.783 0.573,-1.257l0.222,-3.081l2.957,-2.325l-0.064,0.911l-0.031,0.346l0.222,0.314l2.416,3.426l1.685,-1.163l-2.225,-3.143l0.095,-1.791l0.89,1.226l0.159,0.251l0.286,0.094l3.72,1.415l0.731,-1.886l-3.433,-1.32l-1.622,-2.263l-0.476,-0.66c-0.36,-0.495 -0.946,-0.779 -1.558,-0.754Z" style="fill:#abb0c8;"/></svg>