<?xml version="1.0" encoding="UTF-8" standalone="no"?><!DOCTYPE svg PUBLIC "-//W3C//DTD SVG 1.1//EN" "http://www.w3.org/Graphics/SVG/1.1/DTD/svg11.dtd"><svg width="100%" height="100%" viewBox="0 0 32 32" version="1.1" xmlns="http://www.w3.org/2000/svg" xmlns:xlink="http://www.w3.org/1999/xlink" xml:space="preserve" style="fill-rule:evenodd;clip-rule:evenodd;"><path d="M0.011,30l32,0l0,1.99l-32,0l0,-1.99l0,0Z" style="fill:#448aff;fill-rule:nonzero;"/><rect x="4.014" y="18.007" width="6" height="13.993" style="fill:#448aff;"/><rect x="13.009" y="15.008" width="6" height="16.992" style="fill:#448aff;"/><rect x="22.004" y="12.01" width="6.027" height="19.99" style="fill:#448aff;"/><path d="M0.974,11.278l5.772,-5.272l9.182,1.53l8.988,-5.5" style="fill:none;stroke:#448aff;stroke-width:1.8px;"/><path d="M25,-0.008c1.102,0 2.008,0.906 2.008,2.008c0,1.102 -0.906,2.008 -2.008,2.008c-1.102,0 -2.008,-0.906 -2.008,-2.008c0,-1.102 0.906,-2.008 2.008,-2.008l0,0Zm-9,5c0.002,0 0.003,0 0.005,0c1.1,0 2.005,0.905 2.005,2.005c0,1.1 -0.905,2.005 -2.005,2.005c-1.1,0 -2.005,-0.905 -2.005,-2.005c0,-0.002 0,-0.003 0,-0.005c0.007,-1.093 0.907,-1.989 2,-1.992l0,-0.008l0,0Zm-9,-0.984c1.091,0 1.989,0.898 1.989,1.989c0,1.091 -0.898,1.989 -1.989,1.989c-1.09,0 -1.987,-0.896 -1.989,-1.986c0,-1.091 0.898,-1.989 1.989,-1.989l0,-0.003l0,0Z" style="fill:#448aff;fill-rule:nonzero;"/></svg>