<?xml version="1.0" encoding="UTF-8" standalone="no"?><!DOCTYPE svg PUBLIC "-//W3C//DTD SVG 1.1//EN" "http://www.w3.org/Graphics/SVG/1.1/DTD/svg11.dtd"><svg width="100%" height="100%" viewBox="0 0 34 34" version="1.1" xmlns="http://www.w3.org/2000/svg" xmlns:xlink="http://www.w3.org/1999/xlink" xml:space="preserve" style="fill-rule:evenodd;clip-rule:evenodd;"><path d="M18.643,6.012l2.56,0.021l-1.432,2.552l-1.97,-1.137l0.842,-1.436l0,0Zm-7.471,-0.012l7.462,4.55l-1.137,1.97l-10.859,-6.537l4.534,0.017Zm3.218,7.352l1.97,1.137l-1.137,1.97l-1.969,-1.137l1.136,-1.97l0,0Zm-2.274,3.948l1.97,1.137l-1.137,1.97l-1.969,-1.137l1.136,-1.97Zm-2.274,3.939l1.97,1.138l-3.236,5.667l-2.65,-0.019l3.916,-6.786l0,0Zm6.213,-1.664l1.969,1.137l-1.137,1.969l-1.969,-1.137l1.137,-1.969Zm3.939,2.274l1.969,1.137l-1.137,1.969l-1.97,-1.137l1.138,-1.969Zm3.939,2.274l1.97,1.137l-1.137,1.97l-1.966,-1.142l1.133,-1.965l0,0Zm0.067,-14.111c2.139,0 3.9,1.761 3.9,3.9c0,2.155 -3.9,7.284 -3.9,8.718c0,-1.454 -3.9,-6.563 -3.9,-8.718c0,-2.139 1.761,-3.9 3.9,-3.9l0,0Z" style="fill:#fff;"/><path d="M33,5c0,-2.208 -1.792,-4 -4,-4l-24,0c-2.208,0 -4,1.792 -4,4l0,24c0,2.208 1.792,4 4,4l24,0c2.208,0 4,-1.792 4,-4l0,-24Z" style="fill:none;stroke:#fff;stroke-width:2px;"/></svg>