<?xml version="1.0" encoding="UTF-8" standalone="no"?><!DOCTYPE svg PUBLIC "-//W3C//DTD SVG 1.1//EN" "http://www.w3.org/Graphics/SVG/1.1/DTD/svg11.dtd"><svg width="100%" height="100%" viewBox="0 0 6 18" version="1.1" xmlns="http://www.w3.org/2000/svg" xmlns:xlink="http://www.w3.org/1999/xlink" xml:space="preserve" style="fill-rule:evenodd;clip-rule:evenodd;stroke-linejoin:round;stroke-miterlimit:1.41421;"><path d="M2,18l-2,0l0,-2l2,0l0,2Zm4,0l-2,0l0,-2l2,0l0,2Zm-4,-4l-2,0l0,-2l2,0l0,2Zm4,0l-2,0l0,-2l2,0l0,2Zm-4,-4l-2,0l0,-2l2,0l0,2Zm4,0l-2,0l0,-2l2,0l0,2Zm-4,-4l-2,0l0,-2l2,0l0,2Zm4,0l-2,0l0,-2l2,0l0,2Zm-4,-4l-2,0l0,-2l2,0l0,2Zm4,0l-2,0l0,-2l2,0l0,2Z" style="fill:#8e8e93;"/></svg>