<?xml version="1.0" encoding="UTF-8" standalone="no"?><!DOCTYPE svg PUBLIC "-//W3C//DTD SVG 1.1//EN" "http://www.w3.org/Graphics/SVG/1.1/DTD/svg11.dtd"><svg width="100%" height="100%" viewBox="0 0 30 30" version="1.1" xmlns="http://www.w3.org/2000/svg" xmlns:xlink="http://www.w3.org/1999/xlink" xml:space="preserve" style="fill-rule:evenodd;clip-rule:evenodd;"><path d="M25.515,16.372c0.131,-0.91 0.131,-1.833 0,-2.743l2.953,-2.31c0.269,-0.217 0.34,-0.601 0.168,-0.9l-2.8,-4.842c-0.17,-0.297 -0.534,-0.428 -0.854,-0.308l-3.485,1.4c-0.722,-0.56 -1.517,-1.02 -2.362,-1.369l-0.532,-3.709c-0.047,-0.339 -0.343,-0.593 -0.686,-0.588l-5.602,0c-0.342,-0.005 -0.638,0.249 -0.686,0.588l-0.527,3.709c-0.843,0.354 -1.638,0.815 -2.365,1.371l-3.485,-1.4c-0.32,-0.128 -0.689,0.005 -0.854,0.308l-2.8,4.842c-0.179,0.298 -0.107,0.687 0.168,0.9l2.953,2.31c-0.131,0.91 -0.131,1.833 0,2.743l-2.953,2.309c-0.27,0.216 -0.342,0.601 -0.168,0.9l2.8,4.842c0.17,0.297 0.534,0.428 0.854,0.308l3.485,-1.4c0.723,0.561 1.519,1.022 2.365,1.371l0.532,3.709c0.048,0.337 0.341,0.589 0.681,0.587l5.6,0c0.343,0.005 0.639,-0.249 0.686,-0.588l0.534,-3.712c0.844,-0.354 1.638,-0.815 2.365,-1.371l3.485,1.4c0.32,0.129 0.69,-0.005 0.854,-0.308l2.8,-4.842c0.172,-0.299 0.101,-0.683 -0.168,-0.9l-2.956,-2.307Zm-10.4,3.528c-2.688,0 -4.9,-2.212 -4.9,-4.9c0,-2.688 2.212,-4.9 4.9,-4.9c2.688,0 4.9,2.212 4.9,4.9c0,2.688 -2.212,4.9 -4.9,4.9Z" style="fill:none;stroke:#fff;stroke-width:2px;"/></svg>