<?xml version="1.0" encoding="UTF-8" standalone="no"?><!DOCTYPE svg PUBLIC "-//W3C//DTD SVG 1.1//EN" "http://www.w3.org/Graphics/SVG/1.1/DTD/svg11.dtd"><svg width="100%" height="100%" viewBox="0 0 123 19" version="1.1" xmlns="http://www.w3.org/2000/svg" xmlns:xlink="http://www.w3.org/1999/xlink" xml:space="preserve" style="fill-rule:evenodd;clip-rule:evenodd;stroke-linejoin:round;stroke-miterlimit:1.41421;"><path d="M71.081,15.969l2.048,0c4.395,0 6.421,-2.107 6.421,-6.705c0,-4.165 -2.435,-6.604 -6.114,-6.604l-2.355,0l0,13.309Zm-2.555,-15.556l4.628,0c5.289,0 9.105,3.256 9.105,8.748c0,5.978 -3.229,9.056 -9.105,9.056l-4.628,0l0,-17.804Z" style="fill:#fff;fill-rule:nonzero;"/><rect x="0" y="0.081" width="25.031" height="6.157" style="fill:#fff;"/><rect x="0" y="12.381" width="25.031" height="6.164" style="fill:#fff;"/><path d="M50.279,9.343l3.084,0c2.055,0 3.472,0.355 4.306,1.021c0.921,0.694 1.419,1.669 1.419,2.768c0,1.297 -0.393,2.218 -1.002,2.865c-0.82,0.868 -1.999,1.25 -3.763,1.25l-3.136,0c-0.78,0 -0.908,-0.174 -0.908,-1.219l0,-6.685l0,0Zm-1.872,6.208c0,1.788 -0.154,1.89 -2.031,1.89l0,0.776l8.2,0c2.615,0 4.072,-0.634 5.075,-1.585c0.97,-0.951 1.385,-2.203 1.385,-3.465c0,-1.363 -0.73,-2.353 -1.588,-3.071c-1.12,-0.836 -2.53,-1.246 -4.19,-1.291l0,-0.038c1.595,-0.242 2.615,-0.763 3.39,-1.432c0.942,-0.813 1.248,-1.93 1.248,-2.886c0,-1.281 -0.637,-2.275 -1.607,-2.944c-1.325,-0.885 -2.871,-1.092 -5.184,-1.092l-6.729,0l0,0.722c1.877,0 2.031,0.13 2.031,1.929l0,12.487Zm1.872,-13.307c0,-0.696 0.096,-0.871 0.729,-0.871l2.373,0c1.782,0 2.904,0.377 3.623,0.969c0.53,0.454 0.944,1.426 0.944,2.268c0,1.205 -0.414,2.091 -1.113,2.696c-0.93,0.758 -2.307,1.095 -4.064,1.095l-2.492,0l0,-6.157Z" style="fill:#fff;fill-rule:nonzero;"/><path d="M42.639,4.481c-0.521,-2.602 -1.082,-3.465 -4.041,-3.465c-1.252,0 -2.276,0.357 -2.979,0.947c-0.604,0.504 -0.868,1.124 -0.868,1.911c0,0.692 0.365,1.54 0.844,2.002c0.648,0.646 1.598,1.177 3.174,1.975c1.961,1.025 3.453,1.598 4.522,2.824c0.537,0.609 1.06,1.724 1.06,2.961c0,1.3 -0.457,2.481 -1.404,3.334c-1.06,0.961 -2.714,1.567 -4.953,1.567c-1.451,0 -3.231,-0.301 -4.683,-0.849c-0.219,-1.556 -0.503,-2.608 -0.828,-3.716l0.877,-0.218c0.808,3.09 2.207,3.829 4.859,3.829c1.153,0 2.236,-0.313 3.007,-0.926c0.792,-0.591 1.293,-1.464 1.293,-2.61c0,-0.978 -0.276,-1.59 -0.799,-2.211c-0.818,-0.95 -2.17,-1.575 -3.627,-2.28c-1.528,-0.774 -3.629,-1.915 -4.354,-2.959c-0.462,-0.653 -0.755,-1.451 -0.755,-2.395c0,-1.085 0.443,-2.156 1.501,-2.955c0.909,-0.702 2.285,-1.174 4.235,-1.174c1.602,0 2.924,0.2 4.197,0.699c0.151,1.001 0.374,2.375 0.605,3.489l-0.883,0.22l0,0Z" style="fill:#fff;fill-rule:nonzero;"/><path d="M84.981,5.207l2.244,0l0,2.016l0.051,0c0.638,-1.352 2.015,-2.322 3.393,-2.322c0.714,0 1.072,0.077 1.582,0.179l0,2.143c-0.434,-0.178 -0.918,-0.229 -1.327,-0.229c-2.143,0 -3.545,2.041 -3.545,5.305l0,5.918l-2.398,0l0,-13.01l0,0Z" style="fill:#fff;fill-rule:nonzero;"/><path d="M94.303,5.207l2.399,0l0,13.01l-2.399,0l0,-13.01l0,0Zm2.551,-2.503l-2.703,0l0,-2.704l2.703,0l0,2.704Z" style="fill:#fff;fill-rule:nonzero;"/><path d="M105.948,18.217l-2.857,0l-4.669,-13.01l2.628,0l3.52,10.612l0.051,0l3.597,-10.612l2.397,0l-4.667,13.01Z" style="fill:#fff;fill-rule:nonzero;"/><path d="M120.449,10.462c0,-1.989 -1.173,-3.621 -3.239,-3.621c-2.347,0 -3.317,1.938 -3.495,3.621l6.734,0Zm1.556,7.219c-0.918,0.331 -1.963,0.842 -4.107,0.842c-4.617,0 -6.734,-2.805 -6.734,-7.041c0,-3.852 2.423,-6.581 6.097,-6.581c4.336,0 5.739,3.164 5.739,7.347l-9.285,0c0,2.577 2.015,4.337 4.285,4.337c1.582,0 3.419,-0.817 4.005,-1.302l0,2.398Z" style="fill:#fff;fill-rule:nonzero;"/></svg>