<?xml version="1.0" encoding="UTF-8" standalone="no"?><!DOCTYPE svg PUBLIC "-//W3C//DTD SVG 1.1//EN" "http://www.w3.org/Graphics/SVG/1.1/DTD/svg11.dtd"><svg width="100%" height="100%" viewBox="0 0 45 33" version="1.1" xmlns="http://www.w3.org/2000/svg" xmlns:xlink="http://www.w3.org/1999/xlink" xml:space="preserve" style="fill-rule:evenodd;clip-rule:evenodd;stroke-linecap:round;"><path d="M31,1.871l0,27.64c0,1.077 2.849,3.066 7.034,3.066c4.185,0 6.966,-1.99 6.966,-3.066l0,-27.64c0,-0.541 -1.37,-1.871 -2.045,-1.871l-9.908,0c-0.676,0 -2.047,1.33 -2.047,1.871l0,0Z" style="fill:#ff3b30;fill-rule:nonzero;"/><path d="M41.161,24.315l-3.153,2.424l-3.169,-2.439" style="fill:none;stroke:#fff;stroke-width:2.2px;"/><path d="M8.633,10.289l6.633,11.775l-13.266,0l6.633,-11.775Z" style="fill:#ff3b30;stroke:#ff3b30;stroke-width:4px;stroke-linecap:butt;stroke-linejoin:round;"/><path d="M7.369,22.288l0,-1.706l2.044,0l0,1.706l-2.044,0Zm0.338,-2.894l-0.338,-5.284l0,-2.044l2.044,0l0,2.044l-0.338,5.284l-1.368,0l0,0Z" style="fill:#fff;fill-rule:nonzero;"/></svg>