<?xml version="1.0" encoding="UTF-8" standalone="no"?><!DOCTYPE svg PUBLIC "-//W3C//DTD SVG 1.1//EN" "http://www.w3.org/Graphics/SVG/1.1/DTD/svg11.dtd"><svg width="100%" height="100%" viewBox="0 0 200 75" version="1.1" xmlns="http://www.w3.org/2000/svg" xmlns:xlink="http://www.w3.org/1999/xlink" xml:space="preserve" style="fill-rule:evenodd;clip-rule:evenodd;stroke-linejoin:round;stroke-miterlimit:1.41421;"><path d="M200,0l0,75l-200,0l0,-75l200,0Zm-58.79,71.686c3.724,-0.004 7.118,-2.191 8.66,-5.58l0.03,-0.066l5.35,0.006c7.51,0 8.66,-0.169 10.18,-0.494c2.16,-0.46 4.21,-0.895 4.79,-3.218c0.399,-2.914 0.62,-5.85 0.66,-8.791c0.1,-7.149 -0.33,-33.211 -2.05,-40.949c-0.92,-4.162 -2.19,-7.108 -10.18,-7.108l-0.04,0l-0.04,-0.031c-2.36,-2.265 -3.37,-2.455 -4.14,-2.455l-97.24,0c-1.559,0.031 -3.108,0.259 -4.61,0.677c-1.342,0.351 -2.71,0.598 -4.09,0.737c-5.22,0.485 -8.9,2.2 -11.56,5.385l-0.03,0.041l-9.32,0c-0.043,0 -0.087,0.002 -0.13,0.007c-1.108,0.177 -2.08,0.846 -2.64,1.819c-0.8,1.437 -0.67,3.449 0.4,5.981l0.03,0.063l-0.05,0.053c-0.462,0.559 -0.981,1.067 -1.55,1.517c-0.35,0.29 -0.83,0.659 -1.04,0.821c-0.665,0.5 -0.839,1.437 -0.4,2.143c0.441,0.705 1.363,0.955 2.1,0.568c3.79,-1.98 5.38,-4.024 5.49,-7.054c0.028,-0.792 -0.532,-1.493 -1.31,-1.641c-0.096,-0.017 -0.193,-0.025 -0.29,-0.026c-0.489,-0.001 -0.949,0.237 -1.23,0.637c-0.068,0.086 -0.129,0.179 -0.18,0.276l-0.15,0.292l-0.07,-0.318c-0.231,-0.741 -0.192,-1.539 0.11,-2.254c0.212,-0.38 0.576,-0.652 1,-0.748l4.95,-0.011l2.78,0l-0.17,0.279c-0.1,0.17 -0.2,0.341 -0.29,0.519c-3.86,7.223 -5.28,27.723 -5.28,29.223l0,8.418l-0.02,0.327c-0.972,1.385 -1.439,3.063 -1.32,4.751l0,1.787c-0.041,2.228 0.582,4.418 1.79,6.29l0.11,0.179c0.55,0.913 1.17,1.949 9.02,2.079l2.11,0.035l0.49,-0.02l0.03,0.071c1.497,3.499 4.954,5.779 8.76,5.777c0.06,0 0.13,-0.007 0.18,-0.012c0.05,-0.005 0.1,-0.011 0.15,-0.011c0.22,-0.008 0.43,-0.022 0.65,-0.044c0.2,-0.021 0.4,-0.046 0.59,-0.08c0.24,-0.042 0.47,-0.087 0.7,-0.142c0.16,-0.041 0.33,-0.085 0.5,-0.135c0.24,-0.074 0.48,-0.159 0.71,-0.251c0.16,-0.06 0.31,-0.123 0.46,-0.191c0.23,-0.104 0.45,-0.219 0.67,-0.34c0.16,-0.087 0.31,-0.172 0.46,-0.272c0.2,-0.125 0.39,-0.257 0.58,-0.395c0.16,-0.117 0.31,-0.239 0.46,-0.365c0.17,-0.145 0.34,-0.292 0.49,-0.445c0.14,-0.135 0.28,-0.273 0.41,-0.417c0.17,-0.178 0.32,-0.363 0.47,-0.552c0.1,-0.128 0.2,-0.255 0.29,-0.388c0.177,-0.244 0.341,-0.498 0.49,-0.76l0.09,-0.145l0.03,-0.058l73.81,0l0.04,0.058c0.025,0.051 0.056,0.1 0.09,0.145c0.03,0.041 0.05,0.083 0.08,0.126c0.11,0.186 0.22,0.362 0.35,0.544c0.13,0.182 0.26,0.366 0.39,0.528c0.13,0.162 0.26,0.298 0.4,0.462c0.14,0.164 0.29,0.328 0.45,0.473c0.16,0.145 0.31,0.285 0.47,0.42c0.16,0.131 0.32,0.257 0.48,0.377c0.19,0.143 0.38,0.275 0.58,0.4c0.15,0.094 0.3,0.183 0.45,0.268c0.23,0.125 0.45,0.24 0.69,0.346c0.14,0.066 0.29,0.127 0.44,0.185c0.24,0.094 0.48,0.18 0.73,0.255c0.16,0.049 0.32,0.092 0.48,0.132c0.23,0.056 0.47,0.105 0.7,0.144c0.2,0.033 0.39,0.057 0.6,0.079c0.21,0.022 0.42,0.036 0.64,0.044c0.05,0.002 0.09,0.005 0.15,0.011l0.18,0.012Z" style="fill:#fff;"/><path d="M50.54,65.885c-0.003,0 -0.006,0 -0.009,0c-2.095,0 -3.819,-1.724 -3.819,-3.819c0,-2.095 1.724,-3.819 3.819,-3.819c2.095,0 3.819,1.724 3.819,3.819l0,0.001c-0.002,2.091 -1.719,3.812 -3.81,3.818Zm0,-5.175c-0.002,0 -0.004,0 -0.006,0c-0.744,0 -1.356,0.612 -1.356,1.356c0,0.744 0.612,1.356 1.356,1.356c0.743,0 1.355,-0.612 1.356,-1.355c-0.003,-0.74 -0.61,-1.349 -1.35,-1.354l0,-0.003l0,0Zm90.67,5.175c-2.095,-0.001 -3.818,-1.724 -3.818,-3.819c0,-2.095 1.724,-3.819 3.819,-3.819c2.095,0 3.819,1.724 3.819,3.819l0,0.001c-0.001,2.095 -1.724,3.818 -3.819,3.818l-0.001,0l0,0Zm0,-5.175c-0.742,0.002 -1.352,0.614 -1.352,1.356c0,0.744 0.612,1.356 1.356,1.356c0.743,0 1.355,-0.612 1.356,-1.355c-0.002,-0.744 -0.616,-1.355 -1.36,-1.354l0,-0.003l0,0Zm0,10.976c-0.06,0 -0.12,-0.006 -0.18,-0.012c-0.06,-0.006 -0.1,-0.009 -0.15,-0.011c-0.22,-0.008 -0.43,-0.022 -0.64,-0.044c-0.21,-0.022 -0.4,-0.046 -0.6,-0.079c-0.23,-0.039 -0.47,-0.088 -0.7,-0.144c-0.16,-0.04 -0.32,-0.083 -0.48,-0.132c-0.25,-0.075 -0.49,-0.161 -0.73,-0.255c-0.15,-0.058 -0.3,-0.119 -0.44,-0.185c-0.24,-0.106 -0.46,-0.221 -0.69,-0.346c-0.15,-0.085 -0.3,-0.174 -0.45,-0.268c-0.2,-0.125 -0.39,-0.257 -0.58,-0.4c-0.16,-0.12 -0.32,-0.246 -0.48,-0.377c-0.16,-0.135 -0.31,-0.275 -0.47,-0.42c-0.16,-0.145 -0.31,-0.309 -0.45,-0.473c-0.14,-0.164 -0.27,-0.3 -0.4,-0.462c-0.13,-0.162 -0.26,-0.346 -0.39,-0.528c-0.13,-0.182 -0.24,-0.358 -0.35,-0.544c-0.03,-0.043 -0.05,-0.085 -0.08,-0.126c-0.034,-0.045 -0.065,-0.094 -0.09,-0.145l-0.04,-0.058l-73.81,0l-0.03,0.058l-0.09,0.145c-0.149,0.262 -0.313,0.516 -0.49,0.76c-0.09,0.133 -0.19,0.26 -0.29,0.388c-0.15,0.189 -0.3,0.374 -0.47,0.552c-0.13,0.144 -0.27,0.282 -0.41,0.417c-0.15,0.153 -0.32,0.3 -0.49,0.445c-0.15,0.126 -0.3,0.248 -0.46,0.365c-0.19,0.138 -0.38,0.27 -0.58,0.395c-0.15,0.1 -0.3,0.185 -0.46,0.272c-0.22,0.121 -0.44,0.236 -0.67,0.34c-0.15,0.068 -0.3,0.131 -0.46,0.191c-0.23,0.092 -0.47,0.177 -0.71,0.251c-0.17,0.05 -0.34,0.094 -0.5,0.135c-0.23,0.055 -0.46,0.1 -0.7,0.142c-0.19,0.034 -0.39,0.059 -0.59,0.08c-0.22,0.022 -0.43,0.036 -0.65,0.044c-0.05,0 -0.1,0.006 -0.15,0.011c-0.05,0.005 -0.12,0.012 -0.18,0.012c-3.806,0.002 -7.263,-2.278 -8.76,-5.777l-0.03,-0.071l-0.49,0.02l-2.11,-0.035c-7.85,-0.13 -8.47,-1.166 -9.02,-2.079l-0.11,-0.179c-1.208,-1.872 -1.831,-4.062 -1.79,-6.29l0,-1.787c-0.119,-1.688 0.348,-3.366 1.32,-4.751l0.02,-0.327l0,-8.418c0,-1.5 1.42,-22 5.28,-29.223c0.09,-0.178 0.19,-0.349 0.29,-0.519l0.17,-0.279l-2.78,0l-4.95,0.011c-0.424,0.096 -0.788,0.368 -1,0.748c-0.302,0.715 -0.341,1.513 -0.11,2.254l0.07,0.318l0.15,-0.292c0.051,-0.097 0.112,-0.19 0.18,-0.276c0.281,-0.4 0.741,-0.638 1.23,-0.637c0.097,0.001 0.194,0.009 0.29,0.026c0.778,0.148 1.338,0.849 1.31,1.641c-0.11,3.03 -1.7,5.074 -5.49,7.054c-0.737,0.387 -1.659,0.137 -2.1,-0.568c-0.439,-0.706 -0.265,-1.643 0.4,-2.143c0.21,-0.162 0.69,-0.531 1.04,-0.821c0.569,-0.45 1.088,-0.958 1.55,-1.517l0.05,-0.053l-0.03,-0.063c-1.07,-2.532 -1.2,-4.544 -0.4,-5.981c0.56,-0.973 1.532,-1.642 2.64,-1.819c0.043,-0.005 0.087,-0.007 0.13,-0.007l9.32,0l0.03,-0.041c2.66,-3.185 6.34,-4.9 11.56,-5.385c1.38,-0.139 2.748,-0.386 4.09,-0.737c1.502,-0.418 3.051,-0.646 4.61,-0.677l97.24,0c0.77,0 1.78,0.19 4.14,2.455l0.04,0.031l0.04,0c7.99,0 9.26,2.946 10.18,7.108c1.72,7.738 2.15,33.8 2.05,40.949c-0.04,2.941 -0.261,5.877 -0.66,8.791c-0.58,2.323 -2.63,2.758 -4.79,3.218c-1.52,0.325 -2.67,0.494 -10.18,0.494l-5.35,-0.006l-0.03,0.066c-1.542,3.389 -4.936,5.576 -8.66,5.58l0,0Zm0,-16.125c-3.612,0.002 -6.584,2.975 -6.584,6.587c0,3.614 2.973,6.587 6.587,6.587c3.614,0 6.587,-2.973 6.587,-6.587l0,-0.001c-0.002,-3.614 -2.976,-6.586 -6.59,-6.586l0,0Zm-90.58,0c-3.612,0.002 -6.584,2.975 -6.584,6.587c0,3.614 2.973,6.587 6.587,6.587c3.614,0 6.587,-2.973 6.587,-6.587l0,-0.001c-0.008,-3.612 -2.978,-6.581 -6.59,-6.586l0,0Zm-18.456,-2.382c-0.259,0.76 -1.126,1.766 -1.126,1.766c-0.258,0.89 -0.018,2.33 -0.018,2.33c-0.043,1.727 0.446,3.427 1.4,4.867l0.12,0.2c0.49,0.458 4.3,0.72 6.73,0.76l1.88,0l-0.01,-0.122c-0.039,-0.277 -0.059,-0.556 -0.06,-0.836c0,-5.233 4.307,-9.54 9.54,-9.54c5.233,0 9.54,4.307 9.54,9.54c-0.006,0.57 -0.06,1.139 -0.16,1.7l-0.03,0.132l7.48,-0.011l2.7,0.011l18.28,-0.011l2.7,0.011l40.73,-0.011l-0.02,-0.134l-0.02,-0.141c-0.097,-0.51 -0.147,-1.027 -0.15,-1.546c0,-5.231 4.304,-9.535 9.535,-9.535c5.231,0 9.535,4.304 9.535,9.535c-0.001,0.355 -0.021,0.711 -0.06,1.064l-0.02,0.125l0.13,0l0.28,-0.011l4.17,0c3.21,0.1 6.422,-0.044 9.61,-0.432c2.45,-0.522 2.61,-0.751 2.72,-1.22c0.352,-2.71 0.548,-5.437 0.59,-8.169c0.09,-7.071 -0.32,-32.807 -1.99,-40.323c-0.74,-3.316 -1.11,-4.981 -7.51,-4.981l-1.18,0l-0.11,-0.1c-0.829,-0.964 -1.825,-1.772 -2.94,-2.384l-97.25,0c-1.347,0.033 -2.684,0.234 -3.98,0.6c-1.467,0.381 -2.962,0.648 -4.47,0.8c-2.296,0.145 -4.538,0.767 -6.58,1.827c0,0 -1.669,1.141 -2.4,1.82c-0.749,0.684 -1.387,1.481 -1.89,2.361c-0.2,0.314 -0.37,0.611 -0.53,0.92c-3.26,6.1 -4.79,24.25 -4.94,27.336c-0.01,0.264 -0.02,3.586 -0.02,3.586c0,0 0.336,6.622 -0.206,8.216l0,0Z" style="fill:none;stroke:#fff;stroke-width:4px;"/><path d="M50.54,65.885c-0.003,0 -0.006,0 -0.009,0c-2.095,0 -3.819,-1.724 -3.819,-3.819c0,-2.095 1.724,-3.819 3.819,-3.819c2.095,0 3.819,1.724 3.819,3.819l0,0.001c-0.002,2.091 -1.719,3.812 -3.81,3.818Zm0,-5.175c-0.002,0 -0.004,0 -0.006,0c-0.744,0 -1.356,0.612 -1.356,1.356c0,0.744 0.612,1.356 1.356,1.356c0.743,0 1.355,-0.612 1.356,-1.355c-0.003,-0.74 -0.61,-1.349 -1.35,-1.354l0,-0.003l0,0Zm90.67,5.175c-2.095,-0.001 -3.818,-1.724 -3.818,-3.819c0,-2.095 1.724,-3.819 3.819,-3.819c2.095,0 3.819,1.724 3.819,3.819l0,0.001c-0.001,2.095 -1.724,3.818 -3.819,3.818l-0.001,0l0,0Zm0,-5.175c-0.742,0.002 -1.352,0.614 -1.352,1.356c0,0.744 0.612,1.356 1.356,1.356c0.743,0 1.355,-0.612 1.356,-1.355c-0.002,-0.744 -0.616,-1.355 -1.36,-1.354l0,-0.003l0,0Zm0,10.976c-0.06,0 -0.12,-0.006 -0.18,-0.012c-0.06,-0.006 -0.1,-0.009 -0.15,-0.011c-0.22,-0.008 -0.43,-0.022 -0.64,-0.044c-0.21,-0.022 -0.4,-0.046 -0.6,-0.079c-0.23,-0.039 -0.47,-0.088 -0.7,-0.144c-0.16,-0.04 -0.32,-0.083 -0.48,-0.132c-0.25,-0.075 -0.49,-0.161 -0.73,-0.255c-0.15,-0.058 -0.3,-0.119 -0.44,-0.185c-0.24,-0.106 -0.46,-0.221 -0.69,-0.346c-0.15,-0.085 -0.3,-0.174 -0.45,-0.268c-0.2,-0.125 -0.39,-0.257 -0.58,-0.4c-0.16,-0.12 -0.32,-0.246 -0.48,-0.377c-0.16,-0.135 -0.31,-0.275 -0.47,-0.42c-0.16,-0.145 -0.31,-0.309 -0.45,-0.473c-0.14,-0.164 -0.27,-0.3 -0.4,-0.462c-0.13,-0.162 -0.26,-0.346 -0.39,-0.528c-0.13,-0.182 -0.24,-0.358 -0.35,-0.544c-0.03,-0.043 -0.05,-0.085 -0.08,-0.126c-0.034,-0.045 -0.065,-0.094 -0.09,-0.145l-0.04,-0.058l-73.81,0l-0.03,0.058l-0.09,0.145c-0.149,0.262 -0.313,0.516 -0.49,0.76c-0.09,0.133 -0.19,0.26 -0.29,0.388c-0.15,0.189 -0.3,0.374 -0.47,0.552c-0.13,0.144 -0.27,0.282 -0.41,0.417c-0.15,0.153 -0.32,0.3 -0.49,0.445c-0.15,0.126 -0.3,0.248 -0.46,0.365c-0.19,0.138 -0.38,0.27 -0.58,0.395c-0.15,0.1 -0.3,0.185 -0.46,0.272c-0.22,0.121 -0.44,0.236 -0.67,0.34c-0.15,0.068 -0.3,0.131 -0.46,0.191c-0.23,0.092 -0.47,0.177 -0.71,0.251c-0.17,0.05 -0.34,0.094 -0.5,0.135c-0.23,0.055 -0.46,0.1 -0.7,0.142c-0.19,0.034 -0.39,0.059 -0.59,0.08c-0.22,0.022 -0.43,0.036 -0.65,0.044c-0.05,0 -0.1,0.006 -0.15,0.011c-0.05,0.005 -0.12,0.012 -0.18,0.012c-3.806,0.002 -7.263,-2.278 -8.76,-5.777l-0.03,-0.071l-0.49,0.02l-2.11,-0.035c-7.85,-0.13 -8.47,-1.166 -9.02,-2.079l-0.11,-0.179c-1.208,-1.872 -1.831,-4.062 -1.79,-6.29l0,-1.787c-0.119,-1.688 0.348,-3.366 1.32,-4.751l0.02,-0.327l0,-8.418c0,-1.5 1.42,-22 5.28,-29.223c0.09,-0.178 0.19,-0.349 0.29,-0.519l0.17,-0.279l-2.78,0l-4.95,0.011c-0.424,0.096 -0.788,0.368 -1,0.748c-0.302,0.715 -0.341,1.513 -0.11,2.254l0.07,0.318l0.15,-0.292c0.051,-0.097 0.112,-0.19 0.18,-0.276c0.281,-0.4 0.741,-0.638 1.23,-0.637c0.097,0.001 0.194,0.009 0.29,0.026c0.778,0.148 1.338,0.849 1.31,1.641c-0.11,3.03 -1.7,5.074 -5.49,7.054c-0.737,0.387 -1.659,0.137 -2.1,-0.568c-0.439,-0.706 -0.265,-1.643 0.4,-2.143c0.21,-0.162 0.69,-0.531 1.04,-0.821c0.569,-0.45 1.088,-0.958 1.55,-1.517l0.05,-0.053l-0.03,-0.063c-1.07,-2.532 -1.2,-4.544 -0.4,-5.981c0.56,-0.973 1.532,-1.642 2.64,-1.819c0.043,-0.005 0.087,-0.007 0.13,-0.007l9.32,0l0.03,-0.041c2.66,-3.185 6.34,-4.9 11.56,-5.385c1.38,-0.139 2.748,-0.386 4.09,-0.737c1.502,-0.418 3.051,-0.646 4.61,-0.677l97.24,0c0.77,0 1.78,0.19 4.14,2.455l0.04,0.031l0.04,0c7.99,0 9.26,2.946 10.18,7.108c1.72,7.738 2.15,33.8 2.05,40.949c-0.04,2.941 -0.261,5.877 -0.66,8.791c-0.58,2.323 -2.63,2.758 -4.79,3.218c-1.52,0.325 -2.67,0.494 -10.18,0.494l-5.35,-0.006l-0.03,0.066c-1.542,3.389 -4.936,5.576 -8.66,5.58l0,0Zm0,-16.125c-3.612,0.002 -6.584,2.975 -6.584,6.587c0,3.614 2.973,6.587 6.587,6.587c3.614,0 6.587,-2.973 6.587,-6.587l0,-0.001c-0.002,-3.614 -2.976,-6.586 -6.59,-6.586l0,0Zm-90.58,0c-3.612,0.002 -6.584,2.975 -6.584,6.587c0,3.614 2.973,6.587 6.587,6.587c3.614,0 6.587,-2.973 6.587,-6.587l0,-0.001c-0.008,-3.612 -2.978,-6.581 -6.59,-6.586l0,0Zm-18.456,-2.382c-0.259,0.76 -1.126,1.766 -1.126,1.766c-0.258,0.89 -0.018,2.33 -0.018,2.33c-0.043,1.727 0.446,3.427 1.4,4.867l0.12,0.2c0.49,0.458 4.3,0.72 6.73,0.76l1.88,0l-0.01,-0.122c-0.039,-0.277 -0.059,-0.556 -0.06,-0.836c0,-5.233 4.307,-9.54 9.54,-9.54c5.233,0 9.54,4.307 9.54,9.54c-0.006,0.57 -0.06,1.139 -0.16,1.7l-0.03,0.132l7.48,-0.011l2.7,0.011l18.28,-0.011l2.7,0.011l40.73,-0.011l-0.02,-0.134l-0.02,-0.141c-0.097,-0.51 -0.147,-1.027 -0.15,-1.546c0,-5.231 4.304,-9.535 9.535,-9.535c5.231,0 9.535,4.304 9.535,9.535c-0.001,0.355 -0.021,0.711 -0.06,1.064l-0.02,0.125l0.13,0l0.28,-0.011l4.17,0c3.21,0.1 6.422,-0.044 9.61,-0.432c2.45,-0.522 2.61,-0.751 2.72,-1.22c0.352,-2.71 0.548,-5.437 0.59,-8.169c0.09,-7.071 -0.32,-32.807 -1.99,-40.323c-0.74,-3.316 -1.11,-4.981 -7.51,-4.981l-1.18,0l-0.11,-0.1c-0.829,-0.964 -1.825,-1.772 -2.94,-2.384l-97.25,0c-1.347,0.033 -2.684,0.234 -3.98,0.6c-1.467,0.381 -2.962,0.648 -4.47,0.8c-2.296,0.145 -4.538,0.767 -6.58,1.827c0,0 -1.669,1.141 -2.4,1.82c-0.749,0.684 -1.387,1.481 -1.89,2.361c-0.2,0.314 -0.37,0.611 -0.53,0.92c-3.26,6.1 -4.79,24.25 -4.94,27.336c-0.01,0.264 -0.02,3.586 -0.02,3.586c0,0 0.336,6.622 -0.206,8.216l0,0Z" style="fill:#333;fill-rule:nonzero;"/></svg>