<?xml version="1.0" encoding="UTF-8" standalone="no"?><!DOCTYPE svg PUBLIC "-//W3C//DTD SVG 1.1//EN" "http://www.w3.org/Graphics/SVG/1.1/DTD/svg11.dtd"><svg width="100%" height="100%" viewBox="0 0 52 41" version="1.1" xmlns="http://www.w3.org/2000/svg" xmlns:xlink="http://www.w3.org/1999/xlink" xml:space="preserve" style="fill-rule:evenodd;clip-rule:evenodd;"><path d="M48.524,12.533c0.095,-0.683 0.095,-1.375 0,-2.058l2.276,-1.732c0.203,-0.164 0.259,-0.447 0.133,-0.673l-2.163,-3.632c-0.131,-0.221 -0.41,-0.32 -0.657,-0.231l-2.686,1.05c-0.559,-0.42 -1.173,-0.766 -1.825,-1.029l-0.41,-2.783c-0.036,-0.256 -0.267,-0.447 -0.533,-0.441l-4.317,0c-0.262,-0.003 -0.488,0.188 -0.523,0.441l-0.41,2.783c-0.653,0.262 -1.267,0.608 -1.825,1.029l-2.697,-1.05c-0.246,-0.095 -0.529,0.005 -0.656,0.231l-2.153,3.632c-0.14,0.221 -0.087,0.512 0.123,0.673l2.276,1.732c-0.096,0.683 -0.096,1.375 0,2.058l-2.276,1.732c-0.205,0.163 -0.258,0.45 -0.123,0.672l2.153,3.633c0.131,0.221 0.41,0.319 0.656,0.231l2.697,-1.05c0.556,0.424 1.17,0.771 1.825,1.029l0.41,2.783c0.035,0.253 0.261,0.443 0.523,0.441l4.317,0c0.266,0.006 0.497,-0.185 0.533,-0.441l0.41,-2.783c0.65,-0.267 1.264,-0.613 1.825,-1.029l2.686,1.05c0.247,0.095 0.53,-0.005 0.657,-0.231l2.163,-3.633c0.126,-0.225 0.07,-0.508 -0.133,-0.672l-2.276,-1.732l0,0Zm-8.019,2.646c-0.001,0 -0.003,0 -0.005,0c-2.072,0 -3.778,-1.659 -3.778,-3.676c0,-2.016 1.706,-3.675 3.778,-3.675c2.073,0 3.779,1.659 3.779,3.675c-0.002,2.014 -1.703,3.671 -3.774,3.676l0,0Z" style="fill:none;stroke:#aaafc7;stroke-width:2.02px;"/><g id="グループ_4"><circle cx="14" cy="27" r="13" style="fill:none;stroke:#aaafc7;stroke-width:2px;stroke-linejoin:round;stroke-miterlimit:1.41421;"/><rect x="3.25" y="26.25" width="1.5" height="1.5" style="fill:#aaafc7;"/><rect x="13.25" y="36.25" width="1.5" height="1.5" style="fill:#aaafc7;"/><rect x="23.25" y="26.25" width="1.5" height="1.5" style="fill:#aaafc7;"/><rect x="13.25" y="16.25" width="1.5" height="1.5" style="fill:#aaafc7;"/><path d="M14.75,20.25l-1.5,0l0,7.5l5.5,0l0,-1.45l-4,0l0,-6.05Z" style="fill:#aaafc7;"/></g></svg>