<?xml version="1.0" encoding="UTF-8" standalone="no"?><!DOCTYPE svg PUBLIC "-//W3C//DTD SVG 1.1//EN" "http://www.w3.org/Graphics/SVG/1.1/DTD/svg11.dtd"><svg width="100%" height="100%" viewBox="0 0 76 29" version="1.1" xmlns="http://www.w3.org/2000/svg" xmlns:xlink="http://www.w3.org/1999/xlink" xml:space="preserve" style="fill-rule:evenodd;clip-rule:evenodd;stroke-linecap:round;stroke-linejoin:round;stroke-miterlimit:1.5;"><g><path d="M76,22l0,5.693c0,0.695 -0.659,1.26 -1.47,1.26l-0.559,0c-0.811,0 -1.471,-0.565 -1.471,-1.26l0,-2.693l3.5,-3l0,0Z" style="fill:#aaafc7;"/><path d="M55.5,25l0,2.693c0,0.695 -0.66,1.26 -1.471,1.26l-0.559,0c-0.811,0 -1.47,-0.565 -1.47,-1.26l0,-5.693l3.5,3Z" style="fill:#aaafc7;"/><path d="M53.01,22l-0.01,-16l0.045,0c0.506,-2.802 5.22,-5 10.955,-5c5.735,0 10.449,2.198 10.955,5l0.045,0l0.01,16c0,1.656 -1.344,3 -3,3l-16,0c-1.655,0 -3,-1.344 -3,-3l0,0Z" style="fill:none;stroke:#aaafc7;stroke-width:2px;"/><circle cx="71" cy="21" r="2" style="fill:#aaafc7;"/><circle cx="57" cy="21" r="2" style="fill:#aaafc7;"/><path d="M53,13.5c0,0 4.602,0.75 11,0.75c6.398,0 11,-0.75 11,-0.75" style="fill:none;stroke:#aaafc7;stroke-width:1.98px;"/><path d="M53,6.5c0,0 5.247,-0.75 11,-0.75c5.753,0 11,0.75 11,0.75" style="fill:none;stroke:#aaafc7;stroke-width:1.98px;"/></g><g><path d="M50,22l0,5.693c0,0.695 -0.659,1.26 -1.47,1.26l-0.559,0c-0.811,0 -1.471,-0.565 -1.471,-1.26l0,-2.693l3.5,-3l0,0Z" style="fill:#aaafc7;"/><path d="M29.5,25l0,2.693c0,0.695 -0.66,1.26 -1.471,1.26l-0.559,0c-0.811,0 -1.47,-0.565 -1.47,-1.26l0,-5.693l3.5,3Z" style="fill:#aaafc7;"/><path d="M27.01,22l-0.01,-16l0.045,0c0.506,-2.802 5.22,-5 10.955,-5c5.735,0 10.449,2.198 10.955,5l0.045,0l0.01,16c0,1.656 -1.344,3 -3,3l-16,0c-1.655,0 -3,-1.344 -3,-3l0,0Z" style="fill:none;stroke:#aaafc7;stroke-width:2px;"/><circle cx="45" cy="21" r="2" style="fill:#aaafc7;"/><circle cx="31" cy="21" r="2" style="fill:#aaafc7;"/><path d="M27,13.5c0,0 4.602,0.75 11,0.75c6.398,0 11,-0.75 11,-0.75" style="fill:none;stroke:#aaafc7;stroke-width:1.98px;"/><path d="M27,6.5c0,0 5.247,-0.75 11,-0.75c5.753,0 11,0.75 11,0.75" style="fill:none;stroke:#aaafc7;stroke-width:1.98px;"/></g><g><path d="M24,22l0,5.693c0,0.695 -0.659,1.26 -1.47,1.26l-0.559,0c-0.811,0 -1.471,-0.565 -1.471,-1.26l0,-2.693l3.5,-3l0,0Z" style="fill:#aaafc7;"/><path d="M3.5,25l0,2.693c0,0.695 -0.66,1.26 -1.471,1.26l-0.559,0c-0.811,0 -1.47,-0.565 -1.47,-1.26l0,-5.693l3.5,3Z" style="fill:#aaafc7;"/><path d="M1.01,22l-0.01,-16l0.045,0c0.506,-2.802 5.22,-5 10.955,-5c5.735,0 10.449,2.198 10.955,5l0.045,0l0.01,16c0,1.656 -1.344,3 -3,3l-16,0c-1.655,0 -3,-1.344 -3,-3l0,0Z" style="fill:none;stroke:#aaafc7;stroke-width:2px;"/><circle cx="19" cy="21" r="2" style="fill:#aaafc7;"/><circle cx="5" cy="21" r="2" style="fill:#aaafc7;"/><path d="M1,13.5c0,0 4.602,0.75 11,0.75c6.398,0 11,-0.75 11,-0.75" style="fill:none;stroke:#aaafc7;stroke-width:1.98px;"/><path d="M1,6.5c0,0 5.247,-0.75 11,-0.75c5.753,0 11,0.75 11,0.75" style="fill:none;stroke:#aaafc7;stroke-width:1.98px;"/></g></svg>