<?xml version="1.0" encoding="UTF-8" standalone="no"?><!DOCTYPE svg PUBLIC "-//W3C//DTD SVG 1.1//EN" "http://www.w3.org/Graphics/SVG/1.1/DTD/svg11.dtd"><svg width="100%" height="100%" viewBox="0 0 40 40" version="1.1" xmlns="http://www.w3.org/2000/svg" xmlns:xlink="http://www.w3.org/1999/xlink" xml:space="preserve" style="fill-rule:evenodd;clip-rule:evenodd;"><path d="M39,20c0,-10.486 -8.514,-19 -19,-19c-10.486,0 -19,8.514 -19,19c0,10.486 8.514,19 19,19c10.486,0 19,-8.514 19,-19Z" style="fill:none;stroke:#abb0c8;stroke-width:1.9px;"/><path d="M15.53,11l-2.52,0l5.517,6.896l-4.525,0l0,2.095l5.08,0l0,2.067l-5.08,0l0,1.984l5.08,0l0,4.958l1.707,0l0,-4.958l5.189,0l0,-1.984l-5.189,0l0,-2.067l5.189,0l0,-2.095l-4.485,0l5.517,-6.896l-2.818,0l-4.276,6.111l-4.386,-6.111l0,0Z" style="fill:#abb0c8;"/></svg>