<?xml version="1.0" encoding="UTF-8" standalone="no"?><!DOCTYPE svg PUBLIC "-//W3C//DTD SVG 1.1//EN" "http://www.w3.org/Graphics/SVG/1.1/DTD/svg11.dtd"><svg width="100%" height="100%" viewBox="0 0 48 42" version="1.1" xmlns="http://www.w3.org/2000/svg" xmlns:xlink="http://www.w3.org/1999/xlink" xml:space="preserve" style="fill-rule:evenodd;clip-rule:evenodd;stroke-miterlimit:1.414;"><path d="M29,13l0,-12l-28,0l0,28l18,0" style="fill:none;stroke:#aaafc7;stroke-width:2px;stroke-dasharray:2,2;stroke-dashoffset:1;"/><path d="M13.85,7.265l2.2,0l2.95,8.536l0,5.924l-1.21,-4.138l-5.74,0l-1.52,5.13l-2.02,0l5.34,-15.452Zm3.45,8.735l-0.75,-2.4c-0.58,-1.779 -1.07,-2.906 -1.59,-4.727l-0.08,0c-0.5,1.843 -1.01,2.948 -1.57,4.727l-0.77,2.4l4.76,0Z" style="fill:#aaafc7;stroke:#aaafc7;stroke-width:0.5px;stroke-miterlimit:4;"/><rect x="19" y="13" width="28" height="28" style="fill:none;stroke:#aaafc7;stroke-width:2px;stroke-miterlimit:1.41421;"/><path d="M36.01,22.556c-0.663,2.089 -1.7,4.041 -3.06,5.76c-1.359,-1.726 -2.408,-3.675 -3.1,-5.76l6.16,0Zm3.73,0l0,-1.2l-6.15,0l0,-3.028l-1.18,0l0,3.028l-6.13,0l0,1.2l2.39,0c0.787,2.399 1.974,4.647 3.51,6.651c-1.446,1.476 -3.216,2.594 -5.17,3.267c0.253,0.363 0.458,0.757 0.61,1.172c2.006,-0.774 3.813,-1.986 5.29,-3.548c1.434,1.65 3.296,2.872 5.38,3.531c0.181,-0.422 0.413,-0.821 0.69,-1.188c-2.025,-0.592 -3.854,-1.721 -5.29,-3.267c1.579,-1.971 2.785,-4.214 3.56,-6.618l2.49,0Z" style="fill:#aaafc7;fill-rule:nonzero;stroke:#aaafc7;stroke-width:1px;stroke-miterlimit:4;"/></svg>