<?xml version="1.0" encoding="UTF-8" standalone="no"?><!DOCTYPE svg PUBLIC "-//W3C//DTD SVG 1.1//EN" "http://www.w3.org/Graphics/SVG/1.1/DTD/svg11.dtd"><svg width="100%" height="100%" viewBox="0 0 60 35" version="1.1" xmlns="http://www.w3.org/2000/svg" xmlns:xlink="http://www.w3.org/1999/xlink" xml:space="preserve" style="fill-rule:evenodd;clip-rule:evenodd;"><path d="M14.845,30.17l-12.702,0c-0.623,0 -1.136,-0.513 -1.136,-1.136l0,-5.679c0,-2.345 4.593,-4.357 8.224,-5.225c-1.962,-1.158 -3.153,-3.289 -3.112,-5.567c-0.017,-0.179 -0.025,-0.359 -0.025,-0.539c0,-3.129 2.575,-5.705 5.705,-5.705c3.129,0 5.705,2.576 5.705,5.705c0,0.18 -0.009,0.36 -0.026,0.539c0.041,2.278 -1.15,4.409 -3.111,5.567c1.702,0.407 3.615,1.065 5.167,1.891" style="fill:none;stroke:#aaafc7;stroke-width:2px;"/><path d="M40.632,19.948c1.526,-0.792 3.377,-1.423 5.028,-1.818c-1.962,-1.158 -3.153,-3.289 -3.112,-5.567c-0.017,-0.181 -0.026,-0.362 -0.026,-0.544c0,-3.13 2.576,-5.706 5.706,-5.706c3.13,0 5.706,2.576 5.706,5.706c0,0.182 -0.009,0.363 -0.026,0.544c0.041,2.278 -1.15,4.409 -3.112,5.567c3.63,0.868 8.224,2.88 8.224,5.225l0,5.679c0,0.623 -0.513,1.136 -1.136,1.136l-12.917,0" style="fill:none;stroke:#aaafc7;stroke-width:2px;"/><path d="M43.465,34.195l-26.874,0c-0.866,0.001 -1.58,-0.712 -1.581,-1.578l0,-7.951c0,-3.256 6.392,-6.051 11.444,-7.256c-2.729,-1.606 -4.387,-4.566 -4.331,-7.732c0,-4.793 3.539,-8.678 7.905,-8.678c4.366,0 7.9,3.885 7.9,8.678c0.056,3.166 -1.602,6.126 -4.331,7.732c5.052,1.205 11.445,4 11.445,7.256l0,7.951c-0.001,0.865 -0.712,1.576 -1.577,1.578l0,0Z" style="fill:none;stroke:#aaafc7;stroke-width:2px;stroke-linejoin:round;"/></svg>