<?xml version="1.0" encoding="UTF-8" standalone="no"?><!DOCTYPE svg PUBLIC "-//W3C//DTD SVG 1.1//EN" "http://www.w3.org/Graphics/SVG/1.1/DTD/svg11.dtd"><svg width="100%" height="100%" viewBox="0 0 40 40" version="1.1" xmlns="http://www.w3.org/2000/svg" xmlns:xlink="http://www.w3.org/1999/xlink" xml:space="preserve" style="fill-rule:evenodd;clip-rule:evenodd;stroke-linejoin:round;stroke-miterlimit:1.41421;"><path d="M35,16l0,-11c0,-2.208 -1.792,-4 -4,-4l-26,0c-2.208,0 -4,1.792 -4,4l0,30c0,2.208 1.792,4 4,4l26,0c2.208,0 4,-1.792 4,-4l0,-4" style="fill:none;stroke:#aaafc7;stroke-width:2px;"/><path d="M9,2l0,36" style="fill:none;stroke:#aaafc7;stroke-width:2px;stroke-linecap:round;stroke-miterlimit:1.5;"/><path d="M13.99,29l8,0l-3,3l-5,0l0,-3Z" style="fill:#aaafc7;fill-rule:nonzero;"/><path d="M13.99,23l14,0l-3,3l-11,0l0,-3Z" style="fill:#aaafc7;fill-rule:nonzero;"/><rect x="13.99" y="17" width="16" height="3" style="fill:#aaafc7;fill-rule:nonzero;"/><path d="M38.733,22.595c0.171,-0.164 0.267,-0.391 0.267,-0.628c0,-0.236 -0.096,-0.463 -0.267,-0.627l-2.078,-2.08c-0.166,-0.166 -0.392,-0.26 -0.628,-0.26c-0.235,0 -0.461,0.094 -0.628,0.26l-12.399,12.44l0,3.3l3.3,0l12.433,-12.405Z" style="fill:none;stroke:#aaafc7;stroke-width:2px;stroke-miterlimit:4;"/><path d="M32.83,21.84l3.334,3.332l-3.334,-3.332Z" style="fill:none;stroke:#aaafc7;stroke-width:1px;stroke-miterlimit:4;"/></svg>