<?xml version="1.0" encoding="UTF-8" standalone="no"?><!DOCTYPE svg PUBLIC "-//W3C//DTD SVG 1.1//EN" "http://www.w3.org/Graphics/SVG/1.1/DTD/svg11.dtd"><svg width="100%" height="100%" viewBox="0 0 24 40" version="1.1" xmlns="http://www.w3.org/2000/svg" xmlns:xlink="http://www.w3.org/1999/xlink" xml:space="preserve" style="fill-rule:evenodd;clip-rule:evenodd;stroke-linecap:round;stroke-linejoin:round;stroke-miterlimit:1.5;"><path d="M16,34.5c0,-0.828 -0.672,-1.5 -1.5,-1.5l-5,0c-0.828,0 -1.5,0.672 -1.5,1.5l0,3c0,0.828 0.672,1.5 1.5,1.5l5,0c0.828,0 1.5,-0.672 1.5,-1.5l0,-3Z" style="fill:none;stroke:#aaafc7;stroke-width:2px;"/><path d="M14,23l0,10" style="fill:none;stroke:#aaafc7;stroke-width:2px;"/><path d="M10,23l0,10" style="fill:none;stroke:#aaafc7;stroke-width:2px;"/><circle cx="12" cy="12" r="11" style="fill:none;stroke:#aaafc7;stroke-width:2px;stroke-linecap:butt;stroke-miterlimit:1.41421;"/><path d="M19.326,15c-1.177,3.005 -4.119,5.121 -7.536,5.084c-3.357,-0.035 -6.211,-2.138 -7.366,-5.084l14.902,0Zm-14.834,-6c1.221,-2.915 4.116,-4.95 7.468,-4.915c3.292,0.036 6.101,2.058 7.297,4.915l-14.765,0Z" style="fill:#aaafc7;"/></svg>