<?xml version="1.0" encoding="UTF-8" standalone="no"?><!DOCTYPE svg PUBLIC "-//W3C//DTD SVG 1.1//EN" "http://www.w3.org/Graphics/SVG/1.1/DTD/svg11.dtd"><svg width="100%" height="100%" viewBox="0 0 50 40" version="1.1" xmlns="http://www.w3.org/2000/svg" xmlns:xlink="http://www.w3.org/1999/xlink" xml:space="preserve" style="fill-rule:evenodd;clip-rule:evenodd;stroke-linejoin:round;stroke-miterlimit:1.41421;"><path d="M1,40l0,-39l48,0l0,39" style="fill:none;stroke:#aaafc7;stroke-width:2px;"/><rect x="37" y="19" width="6" height="6" style="fill:none;stroke:#aaafc7;stroke-width:2px;"/><rect x="37" y="7" width="6" height="6" style="fill:none;stroke:#aaafc7;stroke-width:2px;"/><g><path d="M30,33l0,5.693c0,0.695 -0.659,1.26 -1.47,1.26l-0.559,0c-0.811,0 -1.471,-0.565 -1.471,-1.26l0,-2.693l3.5,-3l0,0Z" style="fill:#aaafc7;"/><path d="M9.5,36l0,2.693c0,0.695 -0.66,1.26 -1.471,1.26l-0.559,0c-0.811,0 -1.47,-0.565 -1.47,-1.26l0,-5.693l3.5,3Z" style="fill:#aaafc7;"/><path d="M7.01,33l-0.01,-16l0.045,0c0.506,-2.802 5.22,-5 10.955,-5c5.735,0 10.449,2.198 10.955,5l0.045,0l0.01,16c0,1.656 -1.344,3 -3,3l-16,0c-1.655,0 -3,-1.344 -3,-3l0,0Z" style="fill:none;stroke:#aaafc7;stroke-width:2px;stroke-linecap:round;stroke-miterlimit:1.5;"/><circle cx="25" cy="32" r="2" style="fill:#aaafc7;"/><circle cx="11" cy="32" r="2" style="fill:#aaafc7;"/><path d="M7,24.5c0,0 4.602,0.75 11,0.75c6.398,0 11,-0.75 11,-0.75" style="fill:none;stroke:#aaafc7;stroke-width:1.98px;stroke-linecap:round;stroke-miterlimit:1.5;"/><path d="M7,17.5c0,0 5.247,-0.75 11,-0.75c5.753,0 11,0.75 11,0.75" style="fill:none;stroke:#aaafc7;stroke-width:1.98px;stroke-linecap:round;stroke-miterlimit:1.5;"/></g></svg>