<?xml version="1.0" encoding="UTF-8" standalone="no"?><!DOCTYPE svg PUBLIC "-//W3C//DTD SVG 1.1//EN" "http://www.w3.org/Graphics/SVG/1.1/DTD/svg11.dtd"><svg width="100%" height="100%" viewBox="0 0 42 40" version="1.1" xmlns="http://www.w3.org/2000/svg" xmlns:xlink="http://www.w3.org/1999/xlink" xml:space="preserve" style="fill-rule:evenodd;clip-rule:evenodd;stroke-linejoin:round;stroke-miterlimit:1.41421;"><path d="M25,29.021l0,5.979c0,2.194 -1.806,4 -4,4l-16,0c-2.194,0 -4,-1.806 -4,-4l0,-30c0,-2.194 1.806,-4 4,-4l16,0c2.194,0 4,1.806 4,4l0,8.03" style="fill:none;stroke:#666;stroke-width:2px;"/><path d="M33.284,24.117l3.3,3.299l-4.584,4.584l-11,-11l11,-11l4.584,4.584l-3.3,3.299l8.716,0l0,6.234l-8.716,0l0,0Zm-5,-4.234l5.3,-5.299l-1.584,-1.584l-8,8l8,8l1.584,-1.584l-5.3,-5.299l11.716,0l0,-2.234l-11.716,0l0,0Z" style="fill:#666;"/></svg>